# xmcd
#
# Track frame offsets: 
#        150
#        17403
#        37165
#        49879
#        70028
#        90436
#        111989
#        126877
#        143818
#        165362
#
# Disc length: 2445 seconds
#
# Revision: 3
# Processed by: cddbd v1.5.2PL0 Copyright (c) Steve Scherf et al.
# Submitted via: ExactAudioCopy v1.0b1
#
DISCID=7f098b0a
DTITLE=עמיר לב - לפעמים אני מאושר
DYEAR=2004
DGENRE=Israeli
TTITLE0=פריז
TTITLE1=ותינוק
TTITLE2=הורס
TTITLE3=אל תדאגי
TTITLE4=תסעי
TTITLE5=אוקטובר
TTITLE6=חביתות ואורז
TTITLE7=לאן נעלם הים
TTITLE8=שמוליק
TTITLE9=תאהבי אותי תמיד
EXTD=YEAR: 2004
EXTT0=
EXTT1=
EXTT2=
EXTT3=
EXTT4=
EXTT5=
EXTT6=
EXTT7=
EXTT8=
EXTT9=
PLAYORDER=
